<svg xmlns="http://www.w3.org/2000/svg" width="49.998" height="49.998" viewBox="0 0 49.998 49.998"><g transform="translate(-3.375 -3.375)"><path d="M31.051,28.339,24.717,22l6.334-6.334a1.921,1.921,0,1,0-2.716-2.716L22,19.288l-6.334-6.334a1.921,1.921,0,0,0-2.716,2.716L19.285,22l-6.334,6.334a1.857,1.857,0,0,0,0,2.716,1.908,1.908,0,0,0,2.716,0L22,24.721l6.334,6.334a1.93,1.93,0,0,0,2.716,0A1.908,1.908,0,0,0,31.051,28.339Z" transform="translate(6.373 6.369)"/><path d="M28.374,6.74a21.637,21.637,0,0,1,15.3,36.934,21.637,21.637,0,0,1-30.6-30.6,21.491,21.491,0,0,1,15.3-6.334m0-3.365a25,25,0,1,0,25,25,25,25,0,0,0-25-25Z" transform="translate(0 0)"/></g></svg>