<svg xmlns="http://www.w3.org/2000/svg" width="35.037" height="31.138" viewBox="0 0 35.037 31.138"><defs><style>.a{fill:#229480;}</style></defs><path class="a" d="M24.489,5.062l5.487,5.487a.6.6,0,0,1,0,.839L16.691,24.673l-5.645.627a1.183,1.183,0,0,1-1.308-1.308l.627-5.645L23.65,5.062A.6.6,0,0,1,24.489,5.062Zm9.854-1.393L31.375.7a2.379,2.379,0,0,0-3.358,0L25.864,2.854a.6.6,0,0,0,0,.839L31.351,9.18a.6.6,0,0,0,.839,0l2.153-2.153a2.379,2.379,0,0,0,0-3.358ZM23.358,21.059v6.192H3.893V7.787H17.871a.748.748,0,0,0,.517-.213l2.433-2.433A.73.73,0,0,0,20.3,3.894H2.92A2.92,2.92,0,0,0,0,6.814V28.225a2.92,2.92,0,0,0,2.92,2.92H24.331a2.92,2.92,0,0,0,2.92-2.92v-9.6A.731.731,0,0,0,26,18.109l-2.433,2.433A.748.748,0,0,0,23.358,21.059Z" transform="translate(0 -0.007)"/></svg>